<?xml version="1.0" encoding="UTF-8"?>
<svg version="1.1" xmlns="http://www.w3.org/2000/svg" width="512" height="512">
<path d="M0 0 C1.34553955 0.24145752 1.34553955 0.24145752 2.71826172 0.48779297 C52.0785106 9.4194841 97.02252623 33.31028819 133 68 C133.64259766 68.61536621 134.28519531 69.23073242 134.94726562 69.86474609 C144.12667873 78.69432059 152.45557765 87.74088534 160 98 C160.83556908 99.10574725 161.67150577 100.2112168 162.5078125 101.31640625 C184.693039 131.06438392 199.4003366 166.52797929 206.8125 202.75 C207.00739014 203.69383545 207.20228027 204.6376709 207.40307617 205.61010742 C210.5085624 221.7233244 211.38412747 237.87431256 211.3125 254.25 C211.31034485 255.14486115 211.3081897 256.03972229 211.30596924 256.96170044 C211.25254949 270.83215394 210.7310455 284.36181113 208 298 C207.69400879 299.5456665 207.69400879 299.5456665 207.38183594 301.12255859 C198.51755691 344.66332943 180.13658718 385.23171874 151 419 C150.35417969 419.75667969 149.70835937 420.51335937 149.04296875 421.29296875 C138.03160178 433.8623494 126.21298649 445.80434258 112.73583984 455.71728516 C110.93907771 457.04501909 109.16632496 458.40088605 107.39453125 459.76171875 C77.40021855 482.57233594 41.11571556 498.03770266 4.25 505.3125 C3.50854736 505.45993652 2.76709473 505.60737305 2.00317383 505.75927734 C-14.15303622 508.68492158 -30.49297962 509.38075452 -46.875 509.3125 C-47.79165436 509.31067719 -48.70830872 509.30885437 -49.65274048 509.30697632 C-63.3271482 509.26131117 -76.55922121 508.68439008 -90 506 C-91.78773424 505.67954142 -93.57549563 505.35923429 -95.36328125 505.0390625 C-149.18633379 494.85111076 -202.8218874 465.57574702 -238 423 C-239.18916016 421.66001953 -239.18916016 421.66001953 -240.40234375 420.29296875 C-277.34436133 378.44067934 -300.76190659 320.64834759 -301.23828125 264.69140625 C-301.25304001 263.25718575 -301.25304001 263.25718575 -301.26809692 261.79399109 C-301.43614446 241.22982483 -301.51272394 221.16813407 -297 201 C-296.75330566 199.88334961 -296.50661133 198.76669922 -296.25244141 197.61621094 C-287.70909426 160.03387475 -271.49467943 123.9333979 -247 94 C-246.21753906 93.01515625 -245.43507812 92.0303125 -244.62890625 91.015625 C-240.83897855 86.28620426 -236.97399597 81.81382639 -232.609375 77.609375 C-230.9803368 75.9803368 -229.52597886 74.2782055 -228.0625 72.5 C-225.35332786 69.28330485 -222.38058553 66.58312333 -219.17578125 63.8671875 C-216.869273 61.88781417 -214.66082974 59.82215806 -212.4375 57.75 C-206.00791681 51.96729561 -199.08941083 46.93527437 -192 42 C-191.3517627 41.54866699 -190.70352539 41.09733398 -190.03564453 40.63232422 C-173.63354331 29.34647475 -155.80299218 19.61992482 -137 13 C-136.14390137 12.6911084 -135.28780273 12.3822168 -134.40576172 12.06396484 C-119.80961703 6.82977885 -105.25419696 2.77838533 -90 0 C-89.16436523 -0.16371094 -88.32873047 -0.32742188 -87.46777344 -0.49609375 C-59.74668188 -5.7887992 -27.66190963 -5.39940744 0 0 Z " fill="#000000" transform="translate(301,3)"/>
<path d="M0 0 C0.80049271 -0.01299637 1.60098541 -0.02599274 2.42573547 -0.03938293 C10.76843799 -0.16577466 19.11212269 -0.22276529 27.45556641 -0.27441406 C31.41348798 -0.30120134 35.37021214 -0.34999756 39.32763672 -0.41796875 C44.11103684 -0.49990596 48.89329298 -0.54259371 53.67735672 -0.55747795 C55.49791503 -0.56972303 57.31843564 -0.5957502 59.13859177 -0.6359272 C73.40666816 -0.93520199 73.40666816 -0.93520199 77.39117432 1.96487427 C78.91625859 4.00008139 79.93099694 5.95397482 81.02197266 8.24047852 C82.53941796 9.93389874 82.53941796 9.93389874 84.20947266 11.42797852 C90.02197266 17.24047852 90.02197266 17.24047852 90.02197266 21.24047852 C90.68197266 21.24047852 91.34197266 21.24047852 92.02197266 21.24047852 C93.33692808 23.84343127 94.64902252 26.44775884 95.95947266 29.05297852 C96.33265625 29.7909668 96.70583984 30.52895508 97.09033203 31.28930664 C97.44804687 32.00151367 97.80576172 32.7137207 98.17431641 33.44750977 C98.66919556 34.42941284 98.66919556 34.42941284 99.17407227 35.43115234 C100.02197266 37.24047852 100.02197266 37.24047852 101.02197266 40.24047852 C104.02970123 38.91778811 105.83962496 37.59062966 107.90478516 35.04516602 C108.42758057 34.41521729 108.95037598 33.78526855 109.48901367 33.13623047 C110.30970337 32.13595825 110.30970337 32.13595825 111.14697266 31.11547852 C115.67507288 25.72799341 120.19694099 21.03793008 125.90087891 16.85375977 C128.09153395 15.26594331 128.09153395 15.26594331 130.04541016 13.19360352 C137.01011797 6.31148117 147.42913928 3.25905617 157.02197266 2.80297852 C165.02028194 3.09544451 172.62301638 5.95832835 178.46728516 11.46704102 C180.79790788 14.12559055 182.70726788 16.99105667 184.56494141 19.99438477 C185.94596705 22.33120298 185.94596705 22.33120298 188.09033203 24.12524414 C191.10374058 28.98508908 190.48741217 33.72953348 190.38525391 39.33032227 C190.3851195 41.74764006 190.38579546 44.16495801 190.38720703 46.58227539 C190.36631128 50.38554757 190.33434397 54.18818113 190.28637695 57.99121094 C190.24758075 61.66733001 190.25150279 65.34155278 190.26025391 69.01782227 C190.23345047 70.15235336 190.20664703 71.28688446 190.17903137 72.45579529 C190.05320545 78.21691908 190.05320545 78.21691908 192.60246277 83.13331604 C193.84986261 84.12390499 195.1272197 85.07823426 196.43489075 85.98777771 C198.02197266 87.24047852 198.02197266 87.24047852 198.88012695 90.01025391 C198.86892822 90.94345459 198.85772949 91.87665527 198.84619141 92.83813477 C198.84474121 93.88074463 198.84329102 94.92335449 198.84179688 95.99755859 C198.79812988 97.08834717 198.75446289 98.17913574 198.70947266 99.30297852 C198.67104248 100.98653442 198.67104248 100.98653442 198.63183594 102.70410156 C198.33809324 110.83275248 197.41639322 117.78113456 194.02197266 125.24047852 C193.56306641 126.28204102 193.10416016 127.32360352 192.63134766 128.39672852 C189.36495152 135.3421182 185.32251254 141.16714231 180.51318359 147.10253906 C175.67326208 153.60569349 174.46447205 159.95740846 173.27197266 167.86547852 C173.06064697 169.10789307 172.84932129 170.35030762 172.6315918 171.63037109 C171.77468762 176.77617328 170.96681206 181.87544646 170.68994141 187.08813477 C170.15419629 196.01419323 170.15419629 196.01419323 166.48291016 199.99047852 C163.43207741 202.35241355 160.3735822 204.33508205 157.02197266 206.24047852 C156.29365234 206.68907227 155.56533203 207.13766602 154.81494141 207.59985352 C152.49273357 208.99621378 150.14401222 210.18909344 147.64697266 211.24047852 C145.41593338 212.61342576 145.63089747 213.72213948 145.02197266 216.24047852 C143.86281382 218.88819744 142.61850155 221.4876281 141.37353516 224.09594727 C140.30393646 226.58446446 139.44316595 228.97232446 138.62744141 231.54516602 C129.4729307 259.54290588 106.7515333 282.5781854 84.02197266 300.24047852 C82.47969003 301.46887222 80.93793497 302.69792894 79.39697266 303.92797852 C76.08389439 306.49837024 72.69664188 308.76871643 69.10791016 310.93188477 C66.73456068 312.42078378 64.48216114 314.03977877 62.20947266 315.67797852 C57.80926729 318.79676814 53.25580939 321.3803344 48.49072266 323.89672852 C45.83711607 325.29105167 45.83711607 325.29105167 42.77197266 327.42797852 C40.22520443 329.1065303 37.72737493 330.22460353 34.92626953 331.39941406 C31.82220926 332.77037402 28.86858254 334.42060786 25.89697266 336.05297852 C19.06779149 339.74949215 12.11799265 343.08283637 5.02197266 346.24047852 C4.47641724 346.56807159 3.93086182 346.89566467 3.36877441 347.23318481 C-4.47897852 351.53575493 -13.14478808 350.85826202 -21.82958984 350.84204102 C-23.57441611 350.84983213 -25.31923863 350.85850496 -27.0640564 350.86801147 C-30.71372791 350.88288486 -34.3630124 350.8823936 -38.01269531 350.87182617 C-42.64917236 350.86027955 -47.28404024 350.89401472 -51.92025185 350.94051552 C-55.52384428 350.97024904 -59.12706143 350.97169847 -62.73075485 350.96549606 C-64.43769882 350.96651081 -66.14466715 350.9767625 -67.85149002 350.9971199 C-79.62308386 351.12024651 -88.33332848 349.41119755 -98.97802734 344.24047852 C-100.22914745 343.6590042 -101.48082628 343.07873056 -102.73306274 342.49966431 C-113.61080625 337.33063093 -117.2343948 330.88876493 -121.22802734 319.99047852 C-127.7857583 300.82621897 -125.67367172 283.50255603 -120.97802734 264.24047852 C-120.54683594 262.45577148 -120.54683594 262.45577148 -120.10693359 260.63500977 C-118.09396744 253.28991992 -114.80782309 247.0797422 -110.94677734 240.58422852 C-103.53842376 228.00178671 -102.49537844 218.05246558 -103.71630859 203.62329102 C-104.08852125 198.81230354 -104.12778301 194.0611848 -103.97802734 189.24047852 C-103.96126953 188.34844727 -103.94451172 187.45641602 -103.92724609 186.53735352 C-103.32784201 174.54927194 -97.50119214 161.76364331 -88.97802734 153.24047852 C-87.00683594 153.01342773 -87.00683594 153.01342773 -84.62646484 153.04516602 C-83.77568359 153.05161133 -82.92490234 153.05805664 -82.04833984 153.06469727 C-80.71416016 153.08983398 -80.71416016 153.08983398 -79.35302734 153.11547852 C-78.45583984 153.12450195 -77.55865234 153.13352539 -76.63427734 153.14282227 C-74.41526149 153.16642882 -72.19677657 153.19935542 -69.97802734 153.24047852 C-72.18512015 133.36331207 -72.18512015 133.36331207 -79.97802734 115.24047852 C-79.97802734 114.58047852 -79.97802734 113.92047852 -79.97802734 113.24047852 C-80.63802734 113.24047852 -81.29802734 113.24047852 -81.97802734 113.24047852 C-93.20377554 101.51168972 -91.38975055 85.51075058 -91.15380859 70.40063477 C-90.7047353 52.10985206 -90.7047353 52.10985206 -83.82958984 43.94750977 C-81.97802734 42.24047852 -81.97802734 42.24047852 -80.06396484 41.37719727 C-77.54570703 40.00488823 -76.25732168 38.13234153 -74.49560547 35.91674805 C-71.52174074 32.63190969 -67.83353406 30.22039978 -64.22802734 27.67797852 C-63.46748047 27.1269043 -62.70693359 26.57583008 -61.92333984 26.00805664 C-56.80019911 22.34805017 -51.54454935 19.17621216 -45.97802734 16.24047852 C-45.34558105 15.90234131 -44.71313477 15.5642041 -44.06152344 15.21582031 C-30.43461202 8.00959534 -15.6291736 0.18641652 0 0 Z " fill="#FEFEFE" transform="translate(219.97802734375,80.759521484375)"/>
<path d="M0 0 C0.79809082 0.00676758 1.59618164 0.01353516 2.41845703 0.02050781 C3.32120361 0.03355957 3.32120361 0.03355957 4.2421875 0.046875 C4.88412168 12.07719697 5.33374019 21.71969661 -1.7578125 32.046875 C-2.43650391 33.05234375 -2.43650391 33.05234375 -3.12890625 34.078125 C-4.30948578 35.75520994 -5.53241022 37.40225615 -6.7578125 39.046875 C-7.73468784 40.74852882 -8.71118397 42.45059786 -9.66015625 44.16796875 C-10.9317781 46.34465953 -12.33412305 48.40414706 -13.7578125 50.484375 C-15.99341171 53.80711098 -17.92873029 57.1053878 -19.6328125 60.7265625 C-20.4967039 62.5083385 -21.42624201 64.25840349 -22.3828125 65.9921875 C-38.9324234 96.73736982 -34.82164827 129.87132742 -26.16918945 162.26953125 C-25.7578125 164.046875 -25.7578125 164.046875 -25.7578125 166.046875 C-24.56929687 166.02592773 -23.38078125 166.00498047 -22.15625 165.98339844 C-17.66842106 165.90998331 -13.18064291 165.86471339 -8.69238281 165.82714844 C-6.7645571 165.80726072 -4.83678983 165.78014061 -2.90917969 165.74511719 C12.28584482 165.47631863 25.21580793 166.79053647 39.2421875 173.046875 C37.58144599 177.19369623 34.5825386 180.11423523 31.5546875 183.296875 C30.46532421 184.45756275 29.37677906 185.61901891 28.2890625 186.78125 C27.76376953 187.34134766 27.23847656 187.90144531 26.69726562 188.47851562 C24.34326175 191.01578424 22.08456911 193.63181391 19.83984375 196.265625 C7.29324119 210.25401318 -7.04063461 223.16263513 -23.50390625 232.23828125 C-26.04402499 233.65013596 -28.50270657 235.10198659 -30.9453125 236.671875 C-34.90534371 239.19575755 -39.01816594 241.40890995 -43.15234375 243.6328125 C-45.29659539 244.79655927 -47.40590442 245.99684709 -49.5078125 247.234375 C-52.25656568 248.7673335 -54.99331385 250.02114329 -57.88818359 251.24145508 C-59.64199008 251.9969797 -61.37107849 252.80916676 -63.09765625 253.625 C-74.93651807 259.12666434 -87.15374571 262.72130558 -99.7578125 266.046875 C-100.45777344 266.2432959 -101.15773438 266.4397168 -101.87890625 266.64208984 C-117.37227821 270.92078268 -138.9817276 271.20068298 -154.7578125 268.046875 C-156.77416992 266.85107422 -156.77416992 266.85107422 -158.36328125 265.3515625 C-158.95431641 264.79984375 -159.54535156 264.248125 -160.15429688 263.6796875 C-160.74533203 263.09960938 -161.33636719 262.51953125 -161.9453125 261.921875 C-162.54794922 261.365 -163.15058594 260.808125 -163.77148438 260.234375 C-170.32997347 253.98545235 -173.20729587 247.90489174 -175.0703125 239.109375 C-175.25142578 238.34947266 -175.43253906 237.58957031 -175.61914062 236.80664062 C-177.58236267 227.86137598 -175.95331958 220.15183185 -171.7578125 212.046875 C-169.8212247 209.1419933 -167.78915 206.35630971 -165.66015625 203.58984375 C-163.83646757 201.15201761 -162.31490654 198.65969511 -160.7578125 196.046875 C-159.50503486 194.28390434 -158.23319166 192.53436878 -156.9453125 190.796875 C-151.54041435 183.42205976 -146.55109507 175.83065687 -141.7578125 168.046875 C-137.49990365 168.60996802 -134.79731503 170.09322231 -131.2578125 172.484375 C-127.83064661 174.79001048 -124.64959284 176.64385998 -120.7578125 178.046875 C-120.7578125 178.706875 -120.7578125 179.366875 -120.7578125 180.046875 C-120.04238281 180.31242188 -119.32695312 180.57796875 -118.58984375 180.8515625 C-115.68876931 182.07601599 -113.12765386 183.52670563 -110.4453125 185.171875 C-109.56230469 185.71070313 -108.67929688 186.24953125 -107.76953125 186.8046875 C-107.10566406 187.21460938 -106.44179687 187.62453125 -105.7578125 188.046875 C-105.93957031 188.62953125 -106.12132812 189.2121875 -106.30859375 189.8125 C-108.36016761 196.50378706 -110.11010144 203.24568465 -111.7578125 210.046875 C-97.22454622 205.23391019 -84.34055493 199.46474833 -74.7578125 187.046875 C-74.0153125 186.325 -73.2728125 185.603125 -72.5078125 184.859375 C-70.65812002 183.0829883 -70.65812002 183.0829883 -69.375 180.71484375 C-67.7578125 178.046875 -67.7578125 178.046875 -65.96875 175.828125 C-60.45237197 168.97373187 -59.71410779 163.68292473 -59.7578125 155.046875 C-59.73517254 153.44788556 -59.7102844 151.84892696 -59.68359375 150.25 C-59.61532332 144.84695618 -59.67415134 139.44941768 -59.7578125 134.046875 C-59.76506348 133.23331543 -59.77231445 132.41975586 -59.77978516 131.58154297 C-60.01366433 112.24092486 -63.94060031 93.28366549 -68.84765625 74.62890625 C-70.40793202 68.48825012 -71.63397266 62.28168073 -72.7578125 56.046875 C-73.01304687 54.81453125 -73.26828125 53.5821875 -73.53125 52.3125 C-73.7578125 49.046875 -73.7578125 49.046875 -72.53515625 47.19140625 C-71.92800781 46.75183594 -71.32085937 46.31226563 -70.6953125 45.859375 C-70.04304688 45.36953125 -69.39078125 44.8796875 -68.71875 44.375 C-67.09394839 43.27453676 -65.4584674 42.18986015 -63.8203125 41.109375 C-60.60446175 38.94359796 -57.83718617 36.53654412 -54.94921875 33.9609375 C-51.85635001 31.25950135 -48.6420675 28.72302331 -45.421875 26.17578125 C-41.59975987 23.12145171 -37.85378366 19.97630117 -34.10546875 16.83203125 C-31.7578125 15.046875 -31.7578125 15.046875 -28.7578125 14.046875 C-28.7578125 13.386875 -28.7578125 12.726875 -28.7578125 12.046875 C-25.92902496 9.80180552 -22.81827603 7.95966471 -19.7578125 6.046875 C-18.8296875 5.44746094 -18.8296875 5.44746094 -17.8828125 4.8359375 C-12.12383949 1.28990319 -6.70500261 -0.07408843 0 0 Z " fill="#000000" transform="translate(294.7578125,140.953125)"/>
<path d="M0 0 C1.28777344 0.01160156 2.57554687 0.02320312 3.90234375 0.03515625 C5.83787109 0.04869141 5.83787109 0.04869141 7.8125 0.0625 C8.81152344 0.07410156 9.81054688 0.08570312 10.83984375 0.09765625 C12.17317708 3.43098958 13.50651042 6.76432292 14.83984375 10.09765625 C15.20078125 10.94457031 15.56171875 11.79148437 15.93359375 12.6640625 C18.45618975 19.43810262 17.14500043 24.99120803 14.27856445 31.41381836 C11.39111617 37.51145701 8.29822256 43.27120396 4.359375 48.76171875 C1.01082617 53.90935937 -1.48417557 59.58513606 -4.16015625 65.09765625 C5.40984375 65.09765625 14.97984375 65.09765625 24.83984375 65.09765625 C24.94296875 68.45953125 25.04609375 71.82140625 25.15234375 75.28515625 C25.19786377 76.33598389 25.24338379 77.38681152 25.2902832 78.46948242 C25.39322947 85.39610596 25.39322947 85.39610596 22.41796875 89.16796875 C21.5671875 89.80476563 20.71640625 90.4415625 19.83984375 91.09765625 C19.32421875 91.65453125 18.80859375 92.21140625 18.27734375 92.78515625 C16.83984375 94.09765625 16.83984375 94.09765625 14.9140625 94.921875 C12.39369581 96.35055744 11.61025856 97.71090959 10.21484375 100.22265625 C8.98828125 102.41796875 8.98828125 102.41796875 7.83984375 104.09765625 C7.17984375 104.09765625 6.51984375 104.09765625 5.83984375 104.09765625 C5.35000825 105.5733242 4.87368455 107.05347728 4.40234375 108.53515625 C4.13550781 109.35886719 3.86867188 110.18257813 3.59375 111.03125 C1.09584382 121.19112749 1.84317932 131.59245118 2.14257812 141.96484375 C2.15998047 143.22296875 2.17738281 144.48109375 2.1953125 145.77734375 C2.23628052 147.49026611 2.23628052 147.49026611 2.27807617 149.23779297 C1.83984375 152.09765625 1.83984375 152.09765625 0.11450195 153.91845703 C-2.25768787 155.14821735 -4.29035893 155.78431265 -6.91015625 156.28515625 C-7.709375 156.44371094 -8.50859375 156.60226562 -9.33203125 156.765625 C-9.9353125 156.87519531 -10.53859375 156.98476563 -11.16015625 157.09765625 C-24.16015625 127.21513384 -24.16015625 127.21513384 -24.16015625 123.09765625 C-36.70015625 123.09765625 -49.24015625 123.09765625 -62.16015625 123.09765625 C-61.83015625 137.94765625 -61.50015625 152.79765625 -61.16015625 168.09765625 C-57.86015625 169.74765625 -54.56015625 171.39765625 -51.16015625 173.09765625 C-51.16015625 173.75765625 -51.16015625 174.41765625 -51.16015625 175.09765625 C-56.13586642 176.54135083 -61.12943551 177.86013927 -66.16015625 179.09765625 C-67.18109375 179.36320313 -68.20203125 179.62875 -69.25390625 179.90234375 C-73.67756253 180.72860139 -76.05741019 180.80834953 -79.91796875 178.3203125 C-86.52822385 172.52911233 -92.06097062 167.2107312 -92.70678711 158.234375 C-93.64702861 142.3040441 -90.62171377 128.96134211 -85.16015625 114.09765625 C-84.79535156 113.1025 -84.43054688 112.10734375 -84.0546875 111.08203125 C-81.80007067 105.22923002 -79.0716616 99.64903962 -76.16015625 94.09765625 C-75.70769531 93.23398438 -75.25523437 92.3703125 -74.7890625 91.48046875 C-69.49715415 81.58503037 -63.87181721 71.95207604 -56.80859375 63.2109375 C-55.12600767 61.05387809 -53.6408721 58.83457478 -52.16015625 56.53515625 C-49.72637629 52.81705969 -47.03799572 49.5435154 -44.06640625 46.24609375 C-41.92457874 43.83214881 -39.88455073 41.35074136 -37.84765625 38.84765625 C-37.09742188 37.92855469 -36.3471875 37.00945312 -35.57421875 36.0625 C-34.31932284 34.52129288 -33.06483995 32.97973953 -31.81542969 31.43408203 C-30.45657549 29.75496079 -29.09021169 28.08219381 -27.72265625 26.41015625 C-26.89894531 25.39566406 -26.07523437 24.38117188 -25.2265625 23.3359375 C-24.54464844 22.59730469 -23.86273438 21.85867187 -23.16015625 21.09765625 C-22.50015625 21.09765625 -21.84015625 21.09765625 -21.16015625 21.09765625 C-20.93328125 20.56140625 -20.70640625 20.02515625 -20.47265625 19.47265625 C-17.61290969 14.29787676 -13.36227487 10.1947219 -9.16015625 6.09765625 C-8.25265625 5.19015625 -7.34515625 4.28265625 -6.41015625 3.34765625 C-3.16015625 0.09765625 -3.16015625 0.09765625 0 0 Z " fill="#000000" transform="translate(369.16015625,110.90234375)"/>
<path d="M0 0 C1.20536243 3.07664626 2.38608194 6.16218268 3.5625 9.25 C3.90474609 10.12269531 4.24699219 10.99539062 4.59960938 11.89453125 C5.07817383 13.16103516 5.07817383 13.16103516 5.56640625 14.453125 C5.86490479 15.22817383 6.16340332 16.00322266 6.47094727 16.80175781 C7.06249838 19.25968408 6.81266156 20.63503708 6 23 C5.34 23 4.68 23 4 23 C3.505 24.485 3.505 24.485 3 26 C2.2575 26.433125 1.515 26.86625 0.75 27.3125 C-2.1988447 28.91890599 -2.1988447 28.91890599 -4.4375 31.9375 C-7 35 -7 35 -9.875 36.875 C-12.64790994 38.76057876 -14.24968786 40.29593722 -16.375 42.8125 C-22.59130017 50.15779998 -29.99109266 55.72169891 -38 61 C-38.81726563 61.58523437 -39.63453125 62.17046875 -40.4765625 62.7734375 C-43.66845763 64.32491594 -44.8605057 63.96597893 -48.1875 62.875 C-49.04730469 62.60429687 -49.90710938 62.33359375 -50.79296875 62.0546875 C-52.55619838 61.47481905 -54.31930228 60.894566 -56.08183289 60.31257629 C-62.6278453 58.24229431 -69.13506714 56.99466467 -75.9140625 55.95703125 C-77.00971527 55.78370773 -78.10536804 55.61038422 -79.23422241 55.43180847 C-82.69683377 54.88555954 -86.1608472 54.34887717 -89.625 53.8125 C-91.9883809 53.44138926 -94.35166328 53.06965053 -96.71484375 52.69726562 C-102.47544376 51.79091575 -108.23722222 50.89239248 -114 50 C-112.2797218 46.44475839 -110.20720794 43.27736936 -108 40 C-107.505 39.175 -107.01 38.35 -106.5 37.5 C-106.005 36.675 -105.51 35.85 -105 35 C-104.47921875 34.07574219 -103.9584375 33.15148437 -103.421875 32.19921875 C-100.67114901 28.12171596 -96.88558291 25.85070974 -92.75 23.3125 C-91.91791016 22.79993652 -91.08582031 22.28737305 -90.22851562 21.75927734 C-62.20493669 4.93377187 -32.61515574 -3.04595564 0 0 Z " fill="#000000" transform="translate(270,96)"/>
<path d="M0 0 C15.51 0 31.02 0 47 0 C43 21 43 21 41 27 C35 25 29 23 23 21 C23 20.34 23 19.68 23 19 C22.278125 18.731875 21.55625 18.46375 20.8125 18.1875 C18.00233617 17.00098638 15.51583443 15.72514361 13 14 C13 13.34 13 12.68 13 12 C12.43796875 11.76410156 11.8759375 11.52820313 11.296875 11.28515625 C8.46734314 9.70196581 6.51976385 7.74806026 4.25 5.4375 C3.45078125 4.63183594 2.6515625 3.82617188 1.828125 2.99609375 C0 1 0 1 0 0 Z " fill="#000000" transform="translate(171,286)"/>
<path d="M0 0 C4.58430848 -0.13465658 9.16468249 -0.23398429 13.75 -0.3125 C15.70292969 -0.3753418 15.70292969 -0.3753418 17.6953125 -0.43945312 C18.94570312 -0.45556641 20.19609375 -0.47167969 21.484375 -0.48828125 C22.63647461 -0.51446533 23.78857422 -0.54064941 24.97558594 -0.56762695 C28 0 28 0 30.33911133 2.40380859 C31.71877275 4.56040415 32.90175645 6.60349726 33.9375 8.9375 C35.27436915 11.75504494 36.70524535 14.01921225 38.75 16.375 C41 19 41 19 41 21 C27.47 21 13.94 21 0 21 C0 14.07 0 7.14 0 0 Z " fill="#000000" transform="translate(162,169)"/>
<path d="M0 0 C9.24 0 18.48 0 28 0 C28 4.62 28 9.24 28 14 C18.76 14 9.52 14 0 14 C0 9.38 0 4.76 0 0 Z " fill="#000000" transform="translate(184,249)"/>
<path d="M0 0 C9.57 0 19.14 0 29 0 C29 4.29 29 8.58 29 13 C19.43 13 9.86 13 0 13 C0 8.71 0 4.42 0 0 Z " fill="#000000" transform="translate(176,213)"/>
<path d="M0 0 C1.98 0 3.96 0 6 0 C7.32 5.61 8.64 11.22 10 17 C9.34 16.67 8.68 16.34 8 16 C8 15.34 8 14.68 8 14 C3.38 14 -1.24 14 -6 14 C-4.24697589 9.15831437 -2.39853998 4.56864758 0 0 Z " fill="#000000" transform="translate(322,249)"/>
</svg>
